<?xml version="1.0" encoding="UTF-8" standalone="no"?>
<svg
   version="1.1"
   id="svg253"
   sodipodi:docname="CALCULADORA.svg"
   inkscape:version="1.2.2 (732a01da63, 2022-12-09)"
   inkscape:export-filename="assets\icone_calculadora.svg"
   inkscape:export-xdpi="96"
   inkscape:export-ydpi="96"
   width="80"
   height="80"
   xmlns:inkscape="http://www.inkscape.org/namespaces/inkscape"
   xmlns:sodipodi="http://sodipodi.sourceforge.net/DTD/sodipodi-0.dtd"
   xmlns="http://www.w3.org/2000/svg"
   xmlns:svg="http://www.w3.org/2000/svg">
  <sodipodi:namedview
     id="namedview255"
     pagecolor="#505050"
     bordercolor="#eeeeee"
     borderopacity="1"
     inkscape:showpageshadow="0"
     inkscape:pageopacity="0"
     inkscape:pagecheckerboard="0"
     inkscape:deskcolor="#505050"
     showgrid="false"
     inkscape:zoom="0.70710678"
     inkscape:cx="-478.00418"
     inkscape:cy="329.51176"
     inkscape:window-width="1920"
     inkscape:window-height="1009"
     inkscape:window-x="-8"
     inkscape:window-y="-8"
     inkscape:window-maximized="1"
     inkscape:current-layer="svg253">
    <inkscape:grid
       type="xygrid"
       id="grid4196"
       originx="0"
       originy="0" />
  </sodipodi:namedview>
  <defs
     id="defs133">
    <rect
       x="115.96551"
       y="254.55844"
       width="63.63961"
       height="67.882248"
       id="rect7076-9-8-1" />
  </defs>
  <g
     id="g8034"
     inkscape:export-filename="assets\addition.svg"
     inkscape:export-xdpi="96"
     inkscape:export-ydpi="96"
     transform="translate(-705.6829,-222.54289)">
    <path
       stroke="none"
       fill="#383838"
       d="m 773.9329,234.24289 q 11.75,11.75 11.75,28.3 0,16.55 -11.75,28.25 -11.7,11.75 -28.25,11.75 -16.65,0 -28.35,-11.75 -11.65,-11.7 -11.65,-28.25 0,-16.55 11.65,-28.3 11.7,-11.7 28.35,-11.7 16.55,0 28.25,11.7"
       id="path201-51-4-8" />
    <g
       aria-label="+"
       transform="translate(610.51913,-26.263331)"
       id="text7074-6-59-6"
       style="font-size:45.3333px;line-height:1.25;letter-spacing:0px;word-spacing:0px;white-space:pre;shape-inside:url(#rect7076-9-8-1);shape-padding:7.07107;display:inline;fill:#1ea7e1">
      <path
         d="m 138.49577,285.70089 h 4.53333 q 1.67733,0 1.67733,1.58666 v 4.624 h -6.21066 v 6.89066 h -5.07733 q -1.58667,0 -1.58667,-1.67733 v -5.21333 h -4.53333 q -1.67733,0 -1.67733,-1.58666 v -4.624 h 6.21066 v -6.89066 h 5.07733 q 1.58667,0 1.58667,1.67733 z"
         style="font-weight:bold;font-family:'HP Simplified';-inkscape-font-specification:'HP Simplified Bold'"
         id="path11825" />
    </g>
  </g>
</svg>
