<?xml version="1.0" encoding="UTF-8" standalone="no"?>
<svg
   version="1.1"
   id="svg253"
   sodipodi:docname="CALCULADORA.svg"
   inkscape:version="1.2.2 (732a01da63, 2022-12-09)"
   inkscape:export-filename="assets\icone_calculadora.svg"
   inkscape:export-xdpi="96"
   inkscape:export-ydpi="96"
   width="80"
   height="80"
   xmlns:inkscape="http://www.inkscape.org/namespaces/inkscape"
   xmlns:sodipodi="http://sodipodi.sourceforge.net/DTD/sodipodi-0.dtd"
   xmlns="http://www.w3.org/2000/svg"
   xmlns:svg="http://www.w3.org/2000/svg">
  <sodipodi:namedview
     id="namedview255"
     pagecolor="#505050"
     bordercolor="#eeeeee"
     borderopacity="1"
     inkscape:showpageshadow="0"
     inkscape:pageopacity="0"
     inkscape:pagecheckerboard="0"
     inkscape:deskcolor="#505050"
     showgrid="false"
     inkscape:zoom="0.70710678"
     inkscape:cx="-478.00418"
     inkscape:cy="329.51176"
     inkscape:window-width="1920"
     inkscape:window-height="1009"
     inkscape:window-x="-8"
     inkscape:window-y="-8"
     inkscape:window-maximized="1"
     inkscape:current-layer="svg253">
    <inkscape:grid
       type="xygrid"
       id="grid4196"
       originx="0"
       originy="0" />
  </sodipodi:namedview>
  <defs
     id="defs133">
    <rect
       x="115.96551"
       y="254.55844"
       width="63.63961"
       height="67.882248"
       id="rect7076-9-8-6" />
  </defs>
  <g
     id="g8005"
     inkscape:export-filename="assets\cancel.svg"
     inkscape:export-xdpi="96"
     inkscape:export-ydpi="96"
     transform="translate(-439,42.828424)">
    <path
       stroke="none"
       fill="#383838"
       d="M 507.25,-31.128423 Q 519,-19.378424 519,-2.828424 q 0,16.55 -11.75,28.25 -11.7,11.75 -28.25,11.75 -16.65,0 -28.35,-11.75 -11.65,-11.7 -11.65,-28.25 0,-16.55 11.65,-28.299999 11.7,-11.700001 28.35,-11.700001 16.55,0 28.25,11.700001"
       id="path201-1" />
    <g
       aria-label="c"
       transform="translate(345.8989,-295.23864)"
       id="text7074-6-59-3"
       style="font-size:45.3333px;line-height:1.25;letter-spacing:0px;word-spacing:0px;white-space:pre;shape-inside:url(#rect7076-9-8-6);shape-padding:7.07107;display:inline;fill:#e86a17">
      <path
         d="m 141.30643,303.24488 q -1.17867,0.58933 -2.67466,1.04266 -1.45067,0.45334 -3.808,0.45334 -5.304,0 -7.616,-2.90134 -2.312,-2.94666 -2.312,-9.38399 0,-6.43733 2.26667,-9.38399 2.26666,-2.992 7.34399,-2.992 1.67734,0 3.08267,0.272 1.45066,0.272 2.35733,0.72533 0.816,0.408 1.088,0.952 0.272,0.544 0.272,1.45067 v 2.94666 q -1.36,-0.136 -2.76533,-0.18133 -1.36,-0.0907 -1.99467,-0.0907 -1.26933,0 -2.04,0.31734 -0.77066,0.272 -1.17866,0.99733 -0.408,0.68 -0.544,1.85866 -0.136,1.13334 -0.136,2.90133 0,1.904 0.136,3.17334 0.136,1.224 0.49867,1.94933 0.36266,0.68 1.04266,0.952 0.68,0.272 1.72267,0.272 0.272,0 0.72533,0 0.45333,-0.0453 0.90667,-0.0453 0.49866,0 0.90666,0 0.45333,-0.0453 0.68,-0.0453 1.04267,0 1.54133,0.408 0.49867,0.408 0.49867,1.36 z"
         style="font-weight:bold;font-family:'HP Simplified';-inkscape-font-specification:'HP Simplified Bold'"
         id="path11837" />
    </g>
  </g>
</svg>
