<?xml version="1.0" encoding="UTF-8" standalone="no"?>
<svg
   version="1.1"
   id="svg253"
   sodipodi:docname="CALCULADORA.svg"
   inkscape:version="1.2.2 (732a01da63, 2022-12-09)"
   inkscape:export-filename="assets\icone_calculadora.svg"
   inkscape:export-xdpi="96"
   inkscape:export-ydpi="96"
   width="80"
   height="80"
   xmlns:inkscape="http://www.inkscape.org/namespaces/inkscape"
   xmlns:sodipodi="http://sodipodi.sourceforge.net/DTD/sodipodi-0.dtd"
   xmlns="http://www.w3.org/2000/svg"
   xmlns:svg="http://www.w3.org/2000/svg">
  <sodipodi:namedview
     id="namedview255"
     pagecolor="#505050"
     bordercolor="#eeeeee"
     borderopacity="1"
     inkscape:showpageshadow="0"
     inkscape:pageopacity="0"
     inkscape:pagecheckerboard="0"
     inkscape:deskcolor="#505050"
     showgrid="false"
     inkscape:zoom="0.70710678"
     inkscape:cx="-478.00418"
     inkscape:cy="329.51176"
     inkscape:window-width="1920"
     inkscape:window-height="1009"
     inkscape:window-x="-8"
     inkscape:window-y="-8"
     inkscape:window-maximized="1"
     inkscape:current-layer="svg253">
    <inkscape:grid
       type="xygrid"
       id="grid4196"
       originx="0"
       originy="0" />
  </sodipodi:namedview>
  <defs
     id="defs133" />
  <g
     id="g8082"
     inkscape:export-filename="assets\clear.svg"
     inkscape:export-xdpi="96"
     inkscape:export-ydpi="96"
     transform="translate(-705.6829,120.95584)">
    <g
       id="g6253"
       transform="matrix(-1,0,0,1,1312.6829,-683.95584)">
      <path
         stroke="none"
         fill="#35baf3"
         d="m 573.2,589.65 q 0.35,0.15 0.6,0.4 l 10.1,10 q 0.6,0.6 0.6,1.45 0,0.85 -0.6,1.4 l -10.1,10 -0.55,0.4 -0.85,0.2 h -20.9 q -0.85,0 -1.45,-0.6 -0.55,-0.55 -0.55,-1.4 v -20 q 0,-0.85 0.55,-1.45 0.6,-0.55 1.45,-0.55 h 20.9 l 0.8,0.15 m -21.7,1.85 v 20 h 20.9 l 10.1,-10 -10.1,-10 h -20.9"
         id="path2484" />
      <path
         stroke="none"
         fill="#1989b8"
         d="m 573.2,589.65 -0.8,-0.15 h -20.9 q -0.85,0 -1.45,0.55 -0.55,0.6 -0.55,1.45 v 20 q 0,0.85 0.55,1.4 0.6,0.6 1.45,0.6 h 20.9 l 0.85,-0.2 0.55,-0.4 10.1,-10 q 0.6,-0.55 0.6,-1.4 0,-0.85 -0.6,-1.45 l -10.1,-10 q -0.25,-0.25 -0.6,-0.4 m -25.7,21.95 v -20.1 q 0,-1.65 1.15,-2.85 1.15,-1.1 2.75,-1.15 h 21 q 1.65,0 2.8,1.15 l 10.1,10 0.75,1 q 0.45,0.85 0.45,1.85 l -0.05,0.5 -0.4,1.35 -0.75,1 -10.1,10 q -1.15,1.15 -2.8,1.15 h -21 q -1.6,-0.05 -2.75,-1.15 v -0.05 q -1.1,-1.1 -1.15,-2.7"
         id="path2486" />
      <path
         stroke="none"
         fill="#000000"
         fill-opacity="0.101961"
         d="m 547.5,611.6 q 0.05,1.6 1.15,2.7 v 0.05 q 1.15,1.1 2.75,1.15 h 21 q 1.65,0 2.8,-1.15 l 10.1,-10 0.75,-1 0.4,-1.35 0.05,0.5 -0.05,0.5 0.05,0.5 -0.05,0.5 0.05,0.5 q 0,1 -0.45,1.85 l -0.75,1 -10.1,10 q -1.15,1.15 -2.8,1.15 h -21 q -1.6,-0.05 -2.75,-1.15 v -0.05 q -1.15,-1.15 -1.15,-2.8 v -2.9"
         id="path2488" />
    </g>
    <path
       stroke="none"
       fill="#1ea7e1"
       d="m 751.15508,-85.280247 -3.79095,-3.79093 q -0.30025,-0.26277 -0.56311,0 l -2.28957,2.28955 q -0.30024,0.30034 0,0.56307 l 3.75344,3.79101 -3.75344,3.75341 q -0.30024,0.26279 0,0.56299 l 2.25207,2.25209 0.60061,0.0375 3.75345,-3.79108 3.79095,3.75349 q 0.30025,0.30029 0.60061,0 l 2.25207,-2.25209 q 0.30024,-0.30024 0,-0.56294 l -3.79097,-3.7535 3.79097,-3.79097 q 0.26276,-0.26276 0,-0.56305 l -2.28957,-2.28963 q -0.26286,-0.2627 -0.56311,0 l -3.75345,3.79103"
       id="path1838"
       style="stroke-width:0.750694" />
  </g>
</svg>
