<?xml version="1.0" encoding="UTF-8" standalone="no"?>
<svg
   version="1.1"
   id="svg253"
   sodipodi:docname="CALCULADORA.svg"
   inkscape:version="1.2.2 (732a01da63, 2022-12-09)"
   inkscape:export-filename="assets\button_.svg"
   inkscape:export-xdpi="96"
   inkscape:export-ydpi="96"
   width="80"
   height="80"
   xmlns:inkscape="http://www.inkscape.org/namespaces/inkscape"
   xmlns:sodipodi="http://sodipodi.sourceforge.net/DTD/sodipodi-0.dtd"
   xmlns="http://www.w3.org/2000/svg"
   xmlns:svg="http://www.w3.org/2000/svg">
  <sodipodi:namedview
     id="namedview255"
     pagecolor="#505050"
     bordercolor="#eeeeee"
     borderopacity="1"
     inkscape:showpageshadow="0"
     inkscape:pageopacity="0"
     inkscape:pagecheckerboard="0"
     inkscape:deskcolor="#505050"
     showgrid="false"
     inkscape:zoom="0.56403742"
     inkscape:cx="460.07586"
     inkscape:cy="99.284192"
     inkscape:window-width="1366"
     inkscape:window-height="697"
     inkscape:window-x="-8"
     inkscape:window-y="-8"
     inkscape:window-maximized="1"
     inkscape:current-layer="svg253">
    <inkscape:grid
       type="xygrid"
       id="grid4196"
       originx="0"
       originy="0" />
  </sodipodi:namedview>
  <defs
     id="defs133">
    <rect
       x="115.96551"
       y="254.55844"
       width="63.63961"
       height="67.882248"
       id="rect7076-9-8-0" />
  </defs>
  <g
     id="g8089"
     inkscape:export-filename="assets\comma.svg"
     inkscape:export-xdpi="96"
     inkscape:export-ydpi="96"
     transform="translate(-616.7886,-311)">
    <g
       id="g8057">
      <path
         stroke="none"
         fill="#383838"
         d="m 685.0386,322.7 q 11.75,11.75 11.75,28.3 0,16.55 -11.75,28.25 -11.7,11.75 -28.25,11.75 -16.65,0 -28.35,-11.75 -11.65,-11.7 -11.65,-28.25 0,-16.55 11.65,-28.3 11.7,-11.7 28.35,-11.7 16.55,0 28.25,11.7"
         id="path201-84-0" />
      <g
         aria-label=","
         transform="translate(527.17816,47.800456)"
         id="text7074-6-59-37"
         style="font-size:45.3333px;line-height:1.25;letter-spacing:0px;word-spacing:0px;white-space:pre;shape-inside:url(#rect7076-9-8-0);shape-padding:7.07107;display:inline">
        <path
           d="m 133.9171,300.29821 q 0,0.49867 -0.0907,1.04267 -0.0453,0.544 -0.272,1.26933 -0.18134,0.68 -0.63467,1.632 -0.408,0.952 -1.13333,2.312 l -1.85867,3.4 h -3.21866 q -1.13334,0 -1.13334,-0.86134 0,-0.136 0,-0.36266 0.0453,-0.18134 0.18134,-0.45334 l 2.22133,-4.48799 q -1.632,-0.544 -2.176,-1.40534 -0.49867,-0.86133 -0.49867,-1.90399 0,-2.13067 0.99734,-3.08267 0.99733,-0.952 3.30933,-0.952 2.35733,0 3.30933,0.99733 0.99733,0.952 0.99733,2.856 z"
           style="font-weight:bold;font-family:'HP Simplified';-inkscape-font-specification:'HP Simplified Bold';fill:#ffffff"
           id="path11843" />
      </g>
    </g>
  </g>
</svg>
