<?xml version="1.0" encoding="UTF-8" standalone="no"?>
<svg
   version="1.1"
   id="svg253"
   sodipodi:docname="CALCULADORA.svg"
   inkscape:version="1.2.2 (732a01da63, 2022-12-09)"
   inkscape:export-filename="assets\icone_calculadora.svg"
   inkscape:export-xdpi="96"
   inkscape:export-ydpi="96"
   width="80"
   height="80"
   xmlns:inkscape="http://www.inkscape.org/namespaces/inkscape"
   xmlns:sodipodi="http://sodipodi.sourceforge.net/DTD/sodipodi-0.dtd"
   xmlns="http://www.w3.org/2000/svg"
   xmlns:svg="http://www.w3.org/2000/svg">
  <sodipodi:namedview
     id="namedview255"
     pagecolor="#505050"
     bordercolor="#eeeeee"
     borderopacity="1"
     inkscape:showpageshadow="0"
     inkscape:pageopacity="0"
     inkscape:pagecheckerboard="0"
     inkscape:deskcolor="#505050"
     showgrid="false"
     inkscape:zoom="0.70710678"
     inkscape:cx="-478.00418"
     inkscape:cy="329.51176"
     inkscape:window-width="1920"
     inkscape:window-height="1009"
     inkscape:window-x="-8"
     inkscape:window-y="-8"
     inkscape:window-maximized="1"
     inkscape:current-layer="svg253">
    <inkscape:grid
       type="xygrid"
       id="grid4196"
       originx="0"
       originy="0" />
  </sodipodi:namedview>
  <defs
     id="defs133">
    <rect
       x="115.96551"
       y="254.55844"
       width="63.63961"
       height="67.882248"
       id="rect7076-9-1-1" />
  </defs>
  <g
     id="g8069"
     inkscape:export-filename="assets\eight.svg"
     inkscape:export-xdpi="96"
     inkscape:export-ydpi="96"
     transform="translate(-527.8943,-45.628681)">
    <path
       stroke="none"
       fill="#383838"
       d="m 596.1443,57.328681 q 11.75,11.75 11.75,28.3 0,16.549999 -11.75,28.249999 -11.7,11.75 -28.25,11.75 -16.65,0 -28.35,-11.75 -11.65,-11.7 -11.65,-28.249999 0,-16.55 11.65,-28.3 11.7,-11.7 28.35,-11.7 16.55,0 28.25,11.7"
       id="path201-9" />
    <g
       aria-label="8"
       transform="translate(432.70787,-203.10954)"
       id="text7074-6-5-7"
       style="font-size:45.3333px;line-height:1.25;letter-spacing:0px;word-spacing:0px;white-space:pre;shape-inside:url(#rect7076-9-1-1);shape-padding:7.07107;display:inline">
      <path
         d="m 135.2771,304.74088 q -5.34933,0 -8.11466,-2.176 -2.72,-2.22133 -2.72,-6.89066 0,-1.04267 0.136,-2.08534 0.18133,-1.088 0.63467,-2.08533 0.49866,-0.99733 1.31466,-1.85866 0.86134,-0.86134 2.176,-1.54134 -1.94933,-1.17866 -2.81066,-2.99199 -0.86134,-1.81334 -0.86134,-4.03467 0,-3.94399 2.53867,-6.11999 2.584,-2.22133 7.66133,-2.22133 5.03199,0 7.57066,2.17599 2.53866,2.176 2.53866,6.16533 0,2.22133 -0.86133,4.03467 -0.86133,1.81333 -2.81066,2.99199 1.31466,0.68 2.13066,1.54134 0.816,0.816 1.26933,1.81333 0.49867,0.99733 0.68,2.08533 0.18134,1.04267 0.18134,2.13067 0,4.66933 -2.67467,6.89066 -2.62933,2.176 -7.97866,2.176 z m -0.0907,-5.712 q 1.904,0 2.67467,-0.952 0.816,-0.952 0.816,-3.03733 0,-2.08533 -0.816,-3.03733 -0.77067,-0.952 -2.67467,-0.952 -1.90399,0 -2.71999,0.952 -0.77067,0.952 -0.77067,3.03733 0,2.08533 0.77067,3.03733 0.816,0.952 2.71999,0.952 z m 0,-13.59999 q 1.81334,0 2.53867,-0.86133 0.77067,-0.86134 0.77067,-2.72 0,-1.85867 -0.77067,-2.72 -0.72533,-0.86133 -2.53867,-0.86133 -1.81333,0 -2.58399,0.86133 -0.72534,0.86133 -0.72534,2.72 0,1.85866 0.72534,2.72 0.77066,0.86133 2.58399,0.86133 z"
         style="font-weight:bold;font-family:'HP Simplified';-inkscape-font-specification:'HP Simplified Bold';fill:#ffffff"
         id="path11852" />
    </g>
  </g>
</svg>
