<?xml version="1.0" encoding="UTF-8" standalone="no"?>
<svg
   version="1.1"
   id="svg253"
   sodipodi:docname="CALCULADORA.svg"
   inkscape:version="1.2.2 (732a01da63, 2022-12-09)"
   inkscape:export-filename="assets\icone_calculadora.svg"
   inkscape:export-xdpi="96"
   inkscape:export-ydpi="96"
   width="80"
   height="80"
   xmlns:inkscape="http://www.inkscape.org/namespaces/inkscape"
   xmlns:sodipodi="http://sodipodi.sourceforge.net/DTD/sodipodi-0.dtd"
   xmlns="http://www.w3.org/2000/svg"
   xmlns:svg="http://www.w3.org/2000/svg">
  <sodipodi:namedview
     id="namedview255"
     pagecolor="#505050"
     bordercolor="#eeeeee"
     borderopacity="1"
     inkscape:showpageshadow="0"
     inkscape:pageopacity="0"
     inkscape:pagecheckerboard="0"
     inkscape:deskcolor="#505050"
     showgrid="false"
     inkscape:zoom="0.70710678"
     inkscape:cx="-478.00418"
     inkscape:cy="329.51176"
     inkscape:window-width="1920"
     inkscape:window-height="1009"
     inkscape:window-x="-8"
     inkscape:window-y="-8"
     inkscape:window-maximized="1"
     inkscape:current-layer="svg253">
    <inkscape:grid
       type="xygrid"
       id="grid4196"
       originx="0"
       originy="0" />
  </sodipodi:namedview>
  <defs
     id="defs133">
    <rect
       x="115.96551"
       y="254.55844"
       width="63.63961"
       height="67.882248"
       id="rect7076-9-1" />
  </defs>
  <g
     id="g8113"
     inkscape:export-filename="assets\five.svg"
     inkscape:export-xdpi="96"
     inkscape:export-ydpi="96"
     transform="translate(-527.8943,-134.08579)">
    <path
       stroke="none"
       fill="#383838"
       d="m 596.1443,145.78579 q 11.75,11.75 11.75,28.3 0,16.55 -11.75,28.25 -11.7,11.75 -28.25,11.75 -16.65,0 -28.35,-11.75 -11.65,-11.7 -11.65,-28.25 0,-16.55 11.65,-28.3 11.7,-11.7 28.35,-11.7 16.55,0 28.25,11.7"
       id="path201-3-9" />
    <g
       aria-label="5"
       transform="translate(432.43587,-115.0151)"
       id="text7074-6-5"
       style="font-size:45.3333px;line-height:1.25;letter-spacing:0px;word-spacing:0px;white-space:pre;shape-inside:url(#rect7076-9-1);shape-padding:7.07107;display:inline">
      <path
         d="m 144.29843,279.71689 h -10.83466 l -0.31733,5.21333 h 2.08533 q 4.94133,0 7.34399,2.40267 2.448,2.40266 2.448,7.38933 0,2.17599 -0.544,4.03466 -0.49867,1.81333 -1.768,3.17333 -1.224,1.31467 -3.35466,2.08533 -2.08533,0.72534 -5.25867,0.72534 -1.72266,0 -3.53599,-0.22667 -1.768,-0.22667 -2.992,-0.72533 -1.04267,-0.408 -1.36,-0.86134 -0.31733,-0.45333 -0.31733,-1.13333 v -3.71733 q 1.58666,0.136 3.128,0.22667 1.58666,0.0907 2.94666,0.0907 1.632,0 2.67466,-0.136 1.04267,-0.18133 1.632,-0.58933 0.58934,-0.408 0.816,-1.088 0.22667,-0.72533 0.22667,-1.81333 0,-2.22133 -0.90667,-3.08266 -0.90666,-0.90667 -3.26399,-0.90667 h -5.07733 q -0.816,0 -1.36,-0.31733 -0.49867,-0.31734 -0.49867,-1.632 0,-0.31734 0,-0.816 0.0453,-0.544 0.0907,-0.99733 l 0.68,-13.55466 h 15.63999 q 1.67733,0 1.67733,1.58666 z"
         style="font-weight:bold;font-family:'HP Simplified';-inkscape-font-specification:'HP Simplified Bold';fill:#ffffff"
         id="path11819" />
    </g>
  </g>
</svg>
