<?xml version="1.0" encoding="UTF-8" standalone="no"?>
<svg
   version="1.1"
   id="svg253"
   sodipodi:docname="CALCULADORA.svg"
   inkscape:version="1.2.2 (732a01da63, 2022-12-09)"
   inkscape:export-filename="assets\icone_calculadora.svg"
   inkscape:export-xdpi="96"
   inkscape:export-ydpi="96"
   width="80"
   height="80"
   xmlns:inkscape="http://www.inkscape.org/namespaces/inkscape"
   xmlns:sodipodi="http://sodipodi.sourceforge.net/DTD/sodipodi-0.dtd"
   xmlns="http://www.w3.org/2000/svg"
   xmlns:svg="http://www.w3.org/2000/svg">
  <sodipodi:namedview
     id="namedview255"
     pagecolor="#505050"
     bordercolor="#eeeeee"
     borderopacity="1"
     inkscape:showpageshadow="0"
     inkscape:pageopacity="0"
     inkscape:pagecheckerboard="0"
     inkscape:deskcolor="#505050"
     showgrid="false"
     inkscape:zoom="0.70710678"
     inkscape:cx="-478.00418"
     inkscape:cy="329.51176"
     inkscape:window-width="1920"
     inkscape:window-height="1009"
     inkscape:window-x="-8"
     inkscape:window-y="-8"
     inkscape:window-maximized="1"
     inkscape:current-layer="svg253">
    <inkscape:grid
       type="xygrid"
       id="grid4196"
       originx="0"
       originy="0" />
  </sodipodi:namedview>
  <defs
     id="defs133">
    <rect
       x="115.96551"
       y="254.55844"
       width="63.63961"
       height="67.882248"
       id="rect7076-9-8-2" />
  </defs>
  <g
     id="g8046"
     inkscape:export-filename="assets\multiplication.svg"
     inkscape:export-xdpi="96"
     inkscape:export-ydpi="96"
     transform="translate(-705.6829,-45.628681)">
    <path
       stroke="none"
       fill="#383838"
       d="m 773.9329,57.328681 q 11.75,11.75 11.75,28.3 0,16.549999 -11.75,28.249999 -11.7,11.75 -28.25,11.75 -16.65,0 -28.35,-11.75 -11.65,-11.7 -11.65,-28.249999 0,-16.55 11.65,-28.3 11.7,-11.7 28.35,-11.7 16.55,0 28.25,11.7"
       id="path201-67" />
    <g
       aria-label="×"
       transform="translate(610.51913,-203.13221)"
       id="text7074-6-59-1"
       style="font-size:45.3333px;line-height:1.25;letter-spacing:0px;word-spacing:0px;white-space:pre;shape-inside:url(#rect7076-9-8-2);shape-padding:7.07107;display:inline;fill:#1ea7e1">
      <path
         d="m 139.67443,288.78355 5.07733,5.032 -3.4,3.4 q -1.13333,1.13333 -2.312,-0.0453 l -3.89866,-3.89866 -5.032,5.07733 -3.39999,-3.4 q -0.544,-0.544 -0.544,-1.13333 0.0453,-0.63467 0.58933,-1.17867 l 3.89866,-3.85333 -5.07733,-5.07733 3.4,-3.39999 q 1.13333,-1.13334 2.312,0.0453 l 3.85333,3.89866 5.07733,-5.07733 3.4,3.4 q 1.13333,1.13333 -0.0453,2.312 z"
         style="font-weight:bold;font-family:'HP Simplified';-inkscape-font-specification:'HP Simplified Bold'"
         id="path11840" />
    </g>
  </g>
</svg>
