<?xml version="1.0" encoding="UTF-8" standalone="no"?>
<svg
   version="1.1"
   id="svg253"
   sodipodi:docname="CALCULADORA.svg"
   inkscape:version="1.2.2 (732a01da63, 2022-12-09)"
   inkscape:export-filename="assets\icone_calculadora.svg"
   inkscape:export-xdpi="96"
   inkscape:export-ydpi="96"
   width="80"
   height="80"
   xmlns:inkscape="http://www.inkscape.org/namespaces/inkscape"
   xmlns:sodipodi="http://sodipodi.sourceforge.net/DTD/sodipodi-0.dtd"
   xmlns="http://www.w3.org/2000/svg"
   xmlns:svg="http://www.w3.org/2000/svg">
  <sodipodi:namedview
     id="namedview255"
     pagecolor="#505050"
     bordercolor="#eeeeee"
     borderopacity="1"
     inkscape:showpageshadow="0"
     inkscape:pageopacity="0"
     inkscape:pagecheckerboard="0"
     inkscape:deskcolor="#505050"
     showgrid="false"
     inkscape:zoom="0.70710678"
     inkscape:cx="-478.00418"
     inkscape:cy="329.51176"
     inkscape:window-width="1920"
     inkscape:window-height="1009"
     inkscape:window-x="-8"
     inkscape:window-y="-8"
     inkscape:window-maximized="1"
     inkscape:current-layer="svg253">
    <inkscape:grid
       type="xygrid"
       id="grid4196"
       originx="0"
       originy="0" />
  </sodipodi:namedview>
  <defs
     id="defs133">
    <rect
       x="115.96551"
       y="254.55844"
       width="63.63961"
       height="67.882248"
       id="rect7076-9-92-6" />
  </defs>
  <g
     id="g8075"
     inkscape:export-filename="assets\nine.svg"
     inkscape:export-xdpi="96"
     inkscape:export-ydpi="96"
     transform="translate(-616.7886,-45.628681)">
    <path
       stroke="none"
       fill="#383838"
       d="m 685.0386,57.328681 q 11.75,11.75 11.75,28.3 0,16.549999 -11.75,28.249999 -11.7,11.75 -28.25,11.75 -16.65,0 -28.35,-11.75 -11.65,-11.7 -11.65,-28.249999 0,-16.55 11.65,-28.3 11.7,-11.7 28.35,-11.7 16.55,0 28.25,11.7"
       id="path201-6" />
    <g
       aria-label="9"
       transform="translate(521.76083,-203.10954)"
       id="text7074-6-6-4"
       style="font-size:45.3333px;line-height:1.25;letter-spacing:0px;word-spacing:0px;white-space:pre;shape-inside:url(#rect7076-9-92-6);shape-padding:7.07107;display:inline">
      <path
         d="m 131.1971,298.62088 q 2.22134,0 3.536,-0.31733 1.36,-0.36267 2.08533,-1.17867 0.72534,-0.816 0.99734,-2.22133 0.272,-1.40533 0.36266,-3.536 -1.04266,0.68 -2.35733,1.13333 -1.31467,0.45334 -3.03733,0.45334 -3.85333,0 -5.984,-2.448 -2.08533,-2.49333 -2.08533,-7.43466 0,-2.35733 0.544,-4.26133 0.544,-1.904 1.768,-3.264 1.224,-1.36 3.17333,-2.08533 1.94933,-0.72533 4.80533,-0.72533 2.90133,0 4.85066,0.86133 1.99467,0.816 3.21867,2.62933 1.224,1.81333 1.72266,4.624 0.544,2.81066 0.544,6.79999 0,5.576 -0.90666,8.976 -0.86134,3.35466 -2.448,5.16799 -1.58667,1.81333 -3.76266,2.35733 -2.176,0.58934 -4.76,0.58934 -2.312,0 -3.85333,-0.31734 -1.54133,-0.31733 -2.312,-0.77066 -0.86133,-0.49867 -0.99733,-1.13334 -0.136,-0.63466 -0.136,-1.22399 v -2.90134 q 1.45066,0.136 2.76533,0.18134 1.36,0.0453 2.26666,0.0453 z m 3.76267,-11.60532 q 0.77066,0 1.632,-0.18134 0.86133,-0.18133 1.632,-0.68 -0.0453,-2.448 -0.272,-3.89866 -0.22667,-1.496 -0.63467,-2.26667 -0.408,-0.816 -1.04267,-1.088 -0.58933,-0.272 -1.36,-0.272 -1.76799,0 -2.40266,1.04267 -0.63467,0.99733 -0.63467,3.21866 0,2.08534 0.63467,3.128 0.63467,0.99734 2.448,0.99734 z"
         style="font-weight:bold;font-family:'HP Simplified';-inkscape-font-specification:'HP Simplified Bold';fill:#ffffff"
         id="path11846" />
    </g>
  </g>
</svg>
