<?xml version="1.0" encoding="UTF-8" standalone="no"?>
<svg
   version="1.1"
   id="svg253"
   sodipodi:docname="CALCULADORA.svg"
   inkscape:version="1.2.2 (732a01da63, 2022-12-09)"
   inkscape:export-filename="assets\icone_calculadora.svg"
   inkscape:export-xdpi="96"
   inkscape:export-ydpi="96"
   width="80"
   height="80"
   xmlns:inkscape="http://www.inkscape.org/namespaces/inkscape"
   xmlns:sodipodi="http://sodipodi.sourceforge.net/DTD/sodipodi-0.dtd"
   xmlns="http://www.w3.org/2000/svg"
   xmlns:svg="http://www.w3.org/2000/svg">
  <sodipodi:namedview
     id="namedview255"
     pagecolor="#505050"
     bordercolor="#eeeeee"
     borderopacity="1"
     inkscape:showpageshadow="0"
     inkscape:pageopacity="0"
     inkscape:pagecheckerboard="0"
     inkscape:deskcolor="#505050"
     showgrid="false"
     inkscape:zoom="0.70710678"
     inkscape:cx="-478.00418"
     inkscape:cy="329.51176"
     inkscape:window-width="1920"
     inkscape:window-height="1009"
     inkscape:window-x="-8"
     inkscape:window-y="-8"
     inkscape:window-maximized="1"
     inkscape:current-layer="svg253">
    <inkscape:grid
       type="xygrid"
       id="grid4196"
       originx="0"
       originy="0" />
  </sodipodi:namedview>
  <defs
     id="defs133">
    <rect
       x="115.96551"
       y="254.55844"
       width="63.63961"
       height="67.882248"
       id="rect7076" />
  </defs>
  <g
     id="g8022"
     inkscape:export-filename="assets\one.svg"
     inkscape:export-xdpi="96"
     inkscape:export-ydpi="96"
     transform="translate(-439,-222.54289)">
    <path
       stroke="none"
       fill="#383838"
       d="m 507.25,234.24289 q 11.75,11.75 11.75,28.3 0,16.55 -11.75,28.25 -11.7,11.75 -28.25,11.75 -16.65,0 -28.35,-11.75 -11.65,-11.7 -11.65,-28.25 0,-16.55 11.65,-28.3 11.7,-11.7 28.35,-11.7 16.55,0 28.25,11.7"
       id="path201-51" />
    <g
       aria-label="1"
       transform="translate(345.74023,-25.900664)"
       id="text7074"
       style="font-size:45.3333px;line-height:1.25;letter-spacing:0px;word-spacing:0px;white-space:pre;shape-inside:url(#rect7076);shape-padding:7.07107;display:inline">
      <path
         d="m 134.09843,304.15154 q -1.67733,0 -1.67733,-1.58666 v -21.75999 l -3.30933,0.952 q -0.77066,0.22667 -1.088,0.31734 -0.272,0.0453 -0.49866,0.0453 -0.45334,0 -0.77067,-0.22667 -0.31733,-0.22666 -0.31733,-0.77066 v -4.71467 l 1.85866,-0.77066 q 1.40533,-0.58934 2.90133,-1.088 1.54134,-0.544 2.94667,-0.952 1.40533,-0.408 2.53866,-0.63467 1.13334,-0.22666 1.81334,-0.22666 0.67999,0 1.13333,0.45333 0.45333,0.45333 0.45333,1.13333 v 29.82931 z"
         style="font-weight:bold;font-family:'HP Simplified';-inkscape-font-specification:'HP Simplified Bold';fill:#ffffff"
         id="path11804" />
    </g>
  </g>
</svg>
