<?xml version="1.0" encoding="UTF-8" standalone="no"?>
<svg
   version="1.1"
   id="svg253"
   sodipodi:docname="CALCULADORA.svg"
   inkscape:version="1.2.2 (732a01da63, 2022-12-09)"
   inkscape:export-filename="assets\icone_calculadora.svg"
   inkscape:export-xdpi="96"
   inkscape:export-ydpi="96"
   width="80"
   height="80"
   xmlns:inkscape="http://www.inkscape.org/namespaces/inkscape"
   xmlns:sodipodi="http://sodipodi.sourceforge.net/DTD/sodipodi-0.dtd"
   xmlns="http://www.w3.org/2000/svg"
   xmlns:svg="http://www.w3.org/2000/svg">
  <sodipodi:namedview
     id="namedview255"
     pagecolor="#505050"
     bordercolor="#eeeeee"
     borderopacity="1"
     inkscape:showpageshadow="0"
     inkscape:pageopacity="0"
     inkscape:pagecheckerboard="0"
     inkscape:deskcolor="#505050"
     showgrid="false"
     inkscape:zoom="0.70710678"
     inkscape:cx="-478.00418"
     inkscape:cy="329.51176"
     inkscape:window-width="1920"
     inkscape:window-height="1009"
     inkscape:window-x="-8"
     inkscape:window-y="-8"
     inkscape:window-maximized="1"
     inkscape:current-layer="svg253">
    <inkscape:grid
       type="xygrid"
       id="grid4196"
       originx="0"
       originy="0" />
  </sodipodi:namedview>
  <defs
     id="defs133">
    <rect
       x="115.96551"
       y="254.55844"
       width="63.63961"
       height="67.882248"
       id="rect7076-9-4" />
  </defs>
  <g
     id="g8011"
     inkscape:export-filename="assets\seven.svg"
     inkscape:export-xdpi="96"
     inkscape:export-ydpi="96"
     transform="translate(-439,-45.628682)">
    <path
       stroke="none"
       fill="#383838"
       d="M 507.25,57.328683 Q 519,69.078682 519,85.628682 q 0,16.549998 -11.75,28.249998 -11.7,11.75 -28.25,11.75 -16.65,0 -28.35,-11.75 -11.65,-11.7 -11.65,-28.249998 0,-16.55 11.65,-28.299999 11.7,-11.700001 28.35,-11.700001 16.55,0 28.25,11.700001"
       id="path201" />
    <g
       aria-label="7"
       transform="translate(344.08557,-203.17754)"
       id="text7074-6-2"
       style="font-size:45.3333px;line-height:1.25;letter-spacing:0px;word-spacing:0px;white-space:pre;shape-inside:url(#rect7076-9-4);shape-padding:7.07107;display:inline">
      <path
         d="m 129.7011,298.39421 q 0.68,-2.35733 1.54134,-4.85066 0.90666,-2.49333 1.85866,-4.896 0.99733,-2.44799 2.04,-4.66933 1.04267,-2.26666 2.08533,-4.17066 h -10.19999 q -1.67733,0 -1.67733,-1.58667 v -4.75999 h 17.45332 q 1.67733,0 1.67733,1.58666 v 4.12533 q -1.36,3.03734 -2.49333,5.89333 -1.13333,2.81067 -2.13067,5.80267 -0.99733,2.94666 -1.85866,6.21066 -0.86133,3.264 -1.632,7.07199 h -5.712 q -0.952,0 -1.36,-0.49866 -0.36266,-0.544 -0.36266,-1.54134 0,-0.72533 0.18133,-1.63199 0.22667,-0.90667 0.58933,-2.08534 z"
         style="font-weight:bold;font-family:'HP Simplified';-inkscape-font-specification:'HP Simplified Bold';fill:#ffffff"
         id="path11816" />
    </g>
  </g>
</svg>
