<?xml version="1.0" encoding="UTF-8" standalone="no"?>
<svg
   version="1.1"
   id="svg253"
   sodipodi:docname="CALCULADORA.svg"
   inkscape:version="1.2.2 (732a01da63, 2022-12-09)"
   inkscape:export-filename="assets\icone_calculadora.svg"
   inkscape:export-xdpi="96"
   inkscape:export-ydpi="96"
   width="80"
   height="80"
   xmlns:inkscape="http://www.inkscape.org/namespaces/inkscape"
   xmlns:sodipodi="http://sodipodi.sourceforge.net/DTD/sodipodi-0.dtd"
   xmlns="http://www.w3.org/2000/svg"
   xmlns:svg="http://www.w3.org/2000/svg">
  <sodipodi:namedview
     id="namedview255"
     pagecolor="#505050"
     bordercolor="#eeeeee"
     borderopacity="1"
     inkscape:showpageshadow="0"
     inkscape:pageopacity="0"
     inkscape:pagecheckerboard="0"
     inkscape:deskcolor="#505050"
     showgrid="false"
     inkscape:zoom="0.70710678"
     inkscape:cx="-478.00418"
     inkscape:cy="329.51176"
     inkscape:window-width="1920"
     inkscape:window-height="1009"
     inkscape:window-x="-8"
     inkscape:window-y="-8"
     inkscape:window-maximized="1"
     inkscape:current-layer="svg253">
    <inkscape:grid
       type="xygrid"
       id="grid4196"
       originx="0"
       originy="0" />
  </sodipodi:namedview>
  <defs
     id="defs133">
    <rect
       x="115.96551"
       y="254.55844"
       width="63.63961"
       height="67.882248"
       id="rect7076-9-92" />
  </defs>
  <g
     id="g8107"
     inkscape:export-filename="assets\six.svg"
     inkscape:export-xdpi="96"
     inkscape:export-ydpi="96"
     transform="translate(-616.7886,-134.08579)">
    <path
       stroke="none"
       fill="#383838"
       d="m 685.0386,145.78579 q 11.75,11.75 11.75,28.3 0,16.55 -11.75,28.25 -11.7,11.75 -28.25,11.75 -16.65,0 -28.35,-11.75 -11.65,-11.7 -11.65,-28.25 0,-16.55 11.65,-28.3 11.7,-11.7 28.35,-11.7 16.55,0 28.25,11.7"
       id="path201-3-0" />
    <g
       aria-label="6"
       transform="translate(521.4435,-114.65243)"
       id="text7074-6-6"
       style="font-size:45.3333px;line-height:1.25;letter-spacing:0px;word-spacing:0px;white-space:pre;shape-inside:url(#rect7076-9-92);shape-padding:7.07107;display:inline">
      <path
         d="m 138.9491,278.85556 q -2.13067,0 -3.4,0.31733 -1.26933,0.31734 -1.99466,1.13334 -0.72534,0.77066 -0.99734,2.13066 -0.272,1.31467 -0.36266,3.35467 1.088,-0.77067 2.35733,-1.17867 1.26933,-0.408 3.03733,-0.408 3.85333,0 5.93866,2.53867 2.13067,2.53866 2.13067,7.52532 0,2.40267 -0.544,4.352 -0.544,1.904 -1.768,3.264 -1.224,1.36 -3.17333,2.13066 -1.94933,0.72534 -4.80533,0.72534 -2.90133,0 -4.896,-0.816 -1.94933,-0.816 -3.17333,-2.584 -1.224,-1.768 -1.768,-4.57867 -0.49867,-2.81066 -0.49867,-6.79999 0,-5.48533 0.86134,-8.83999 0.90666,-3.4 2.448,-5.25867 1.58666,-1.85866 3.71733,-2.49333 2.13066,-0.63466 4.62399,-0.63466 2.176,0 3.672,0.31733 1.54133,0.31733 2.312,0.77066 0.86133,0.49867 0.99733,1.13334 0.136,0.63466 0.136,1.224 v 2.90133 q -1.45066,-0.136 -2.76533,-0.18134 -1.31467,-0.0453 -2.08533,-0.0453 z m -3.536,11.28799 q -0.68,0 -1.58666,0.136 -0.86134,0.136 -1.67734,0.72534 0,2.53866 0.22667,4.07999 0.22667,1.54134 0.63467,2.40267 0.408,0.816 0.99733,1.088 0.63466,0.272 1.45066,0.272 1.768,0 2.40267,-1.04267 0.63467,-1.04267 0.63467,-3.35466 0,-2.312 -0.63467,-3.30933 -0.63467,-0.99734 -2.448,-0.99734 z"
         style="font-weight:bold;font-family:'HP Simplified';-inkscape-font-specification:'HP Simplified Bold';fill:#ffffff"
         id="path11813" />
    </g>
  </g>
</svg>
