<?xml version="1.0" encoding="UTF-8" standalone="no"?>
<svg
   version="1.1"
   id="svg253"
   sodipodi:docname="CALCULADORA.svg"
   inkscape:version="1.2.2 (732a01da63, 2022-12-09)"
   inkscape:export-filename="assets\icone_calculadora.svg"
   inkscape:export-xdpi="96"
   inkscape:export-ydpi="96"
   width="80"
   height="80"
   xmlns:inkscape="http://www.inkscape.org/namespaces/inkscape"
   xmlns:sodipodi="http://sodipodi.sourceforge.net/DTD/sodipodi-0.dtd"
   xmlns="http://www.w3.org/2000/svg"
   xmlns:svg="http://www.w3.org/2000/svg">
  <sodipodi:namedview
     id="namedview255"
     pagecolor="#505050"
     bordercolor="#eeeeee"
     borderopacity="1"
     inkscape:showpageshadow="0"
     inkscape:pageopacity="0"
     inkscape:pagecheckerboard="0"
     inkscape:deskcolor="#505050"
     showgrid="false"
     inkscape:zoom="0.70710678"
     inkscape:cx="-478.00418"
     inkscape:cy="329.51176"
     inkscape:window-width="1920"
     inkscape:window-height="1009"
     inkscape:window-x="-8"
     inkscape:window-y="-8"
     inkscape:window-maximized="1"
     inkscape:current-layer="svg253">
    <inkscape:grid
       type="xygrid"
       id="grid4196"
       originx="0"
       originy="0" />
  </sodipodi:namedview>
  <defs
     id="defs133">
    <rect
       x="115.96551"
       y="254.55844"
       width="63.63961"
       height="67.882248"
       id="rect7076-9" />
  </defs>
  <g
     id="g8101"
     inkscape:export-filename="assets\three.svg"
     inkscape:export-xdpi="96"
     inkscape:export-ydpi="96"
     transform="translate(-616.7886,-222.54289)">
    <path
       stroke="none"
       fill="#383838"
       d="m 685.0386,234.24289 q 11.75,11.75 11.75,28.3 0,16.55 -11.75,28.25 -11.7,11.75 -28.25,11.75 -16.65,0 -28.35,-11.75 -11.65,-11.7 -11.65,-28.25 0,-16.55 11.65,-28.3 11.7,-11.7 28.35,-11.7 16.55,0 28.25,11.7"
       id="path201-51-3" />
    <g
       aria-label="3"
       transform="translate(521.80617,-26.195331)"
       id="text7074-6"
       style="font-size:45.3333px;line-height:1.25;letter-spacing:0px;word-spacing:0px;white-space:pre;shape-inside:url(#rect7076-9);shape-padding:7.07107;display:inline">
      <path
         d="m 131.65044,291.50355 q -1.67734,0 -1.67734,-1.58666 v -4.53333 h 3.17334 q 1.26933,0 1.99466,-0.272 0.72533,-0.272 1.088,-0.68 0.408,-0.45334 0.49867,-0.952 0.0907,-0.544 0.0907,-1.04267 0,-1.04266 -0.272,-1.632 -0.22666,-0.63466 -0.816,-0.952 -0.544,-0.36266 -1.45066,-0.45333 -0.90667,-0.0907 -2.22133,-0.0907 -1.54134,0 -2.62934,0.0907 -1.08799,0.0907 -2.17599,0.0907 -0.90667,0 -1.31467,-0.408 -0.36267,-0.45334 -0.36267,-1.224 v -3.536 q 1.17867,-0.544 3.35467,-1.04267 2.176,-0.54399 5.032,-0.54399 5.39466,0 7.79732,2.22133 2.448,2.176 2.448,6.25599 0,2.312 -1.088,4.08 -1.04266,1.768 -3.4,2.81066 1.496,0.544 2.448,1.36 0.952,0.816 1.496,1.81334 0.58933,0.95199 0.77067,2.03999 0.22666,1.04267 0.22666,2.08534 0,4.30666 -2.62933,6.84532 -2.584,2.49334 -8.25066,2.49334 -1.45066,0 -3.4,-0.22667 -1.94933,-0.18133 -3.39999,-0.72533 -1.088,-0.408 -1.40534,-0.86134 -0.272,-0.49866 -0.272,-1.13333 v -3.944 q 0.72534,0.0907 1.58667,0.136 0.90667,0.0453 1.81333,0.0907 0.90667,0.0453 1.72267,0.0907 0.816,0 1.40533,0 2.94666,0 4.03466,-0.68 1.088,-0.72534 1.088,-2.584 0,-0.68 -0.18133,-1.26933 -0.136,-0.63467 -0.58933,-1.088 -0.408,-0.49867 -1.224,-0.77067 -0.816,-0.272 -2.08533,-0.272 z"
         style="font-weight:bold;font-family:'HP Simplified';-inkscape-font-specification:'HP Simplified Bold';fill:#ffffff"
         id="path11807" />
    </g>
  </g>
</svg>
