<?xml version="1.0" encoding="UTF-8" standalone="no"?>
<svg
   version="1.1"
   id="svg253"
   sodipodi:docname="CALCULADORA.svg"
   inkscape:version="1.2.2 (732a01da63, 2022-12-09)"
   inkscape:export-filename="assets\icone_calculadora.svg"
   inkscape:export-xdpi="96"
   inkscape:export-ydpi="96"
   width="80"
   height="80"
   xmlns:inkscape="http://www.inkscape.org/namespaces/inkscape"
   xmlns:sodipodi="http://sodipodi.sourceforge.net/DTD/sodipodi-0.dtd"
   xmlns="http://www.w3.org/2000/svg"
   xmlns:svg="http://www.w3.org/2000/svg">
  <sodipodi:namedview
     id="namedview255"
     pagecolor="#505050"
     bordercolor="#eeeeee"
     borderopacity="1"
     inkscape:showpageshadow="0"
     inkscape:pageopacity="0"
     inkscape:pagecheckerboard="0"
     inkscape:deskcolor="#505050"
     showgrid="false"
     inkscape:zoom="0.70710678"
     inkscape:cx="-478.00418"
     inkscape:cy="329.51176"
     inkscape:window-width="1920"
     inkscape:window-height="1009"
     inkscape:window-x="-8"
     inkscape:window-y="-8"
     inkscape:window-maximized="1"
     inkscape:current-layer="svg253">
    <inkscape:grid
       type="xygrid"
       id="grid4196"
       originx="0"
       originy="0" />
  </sodipodi:namedview>
  <defs
     id="defs133">
    <rect
       x="115.96551"
       y="254.55844"
       width="63.63961"
       height="67.882248"
       id="rect7076-9-8" />
  </defs>
  <g
     id="g8095"
     inkscape:export-filename="assets\two.svg"
     inkscape:export-xdpi="96"
     inkscape:export-ydpi="96"
     transform="translate(-527.8943,-222.54289)">
    <path
       stroke="none"
       fill="#383838"
       d="m 596.1443,234.24289 q 11.75,11.75 11.75,28.3 0,16.55 -11.75,28.25 -11.7,11.75 -28.25,11.75 -16.65,0 -28.35,-11.75 -11.65,-11.7 -11.65,-28.25 0,-16.55 11.65,-28.3 11.7,-11.7 28.35,-11.7 16.55,0 28.25,11.7"
       id="path201-51-4" />
    <g
       aria-label="2"
       transform="translate(432.84387,-25.900664)"
       id="text7074-6-59"
       style="font-size:45.3333px;line-height:1.25;letter-spacing:0px;word-spacing:0px;white-space:pre;shape-inside:url(#rect7076-9-8);shape-padding:7.07107;display:inline">
      <path
         d="m 139.26643,291.36755 q -0.90666,0.72533 -1.81333,1.45067 -0.90667,0.68 -1.67733,1.45066 -0.77067,0.77067 -1.31467,1.632 -0.544,0.86133 -0.77066,1.904 h 9.29332 q 1.67733,0 1.67733,1.58667 v 4.75999 h -17.67998 q -1.67734,0 -1.67734,-1.58666 v -2.13067 q 0,-2.35733 0.63467,-4.17066 0.68,-1.85867 1.67733,-3.30933 1.04267,-1.45067 2.312,-2.584 1.26933,-1.13333 2.49333,-2.13067 1.40534,-1.13333 2.312,-1.90399 0.90667,-0.816 1.40533,-1.45067 0.544,-0.68 0.72534,-1.26933 0.22666,-0.63467 0.22666,-1.40533 0,-1.904 -1.224,-2.35734 -1.17866,-0.49866 -3.49066,-0.49866 -1.72267,0 -3.08267,0.0907 -1.31466,0.0907 -1.81333,0.0907 -1.72266,0 -1.72266,-1.632 v -3.58133 q 1.17866,-0.544 3.44533,-1.04267 2.26666,-0.54399 5.03199,-0.54399 5.48533,0 8.024,2.35733 2.53866,2.312 2.53866,6.43733 0,1.90399 -0.49866,3.35466 -0.45334,1.45067 -1.224,2.62933 -0.77067,1.13333 -1.768,2.08533 -0.99733,0.952 -2.04,1.768 z"
         style="font-weight:bold;font-family:'HP Simplified';-inkscape-font-specification:'HP Simplified Bold';fill:#ffffff"
         id="path11822" />
    </g>
  </g>
</svg>
