<?xml version="1.0" encoding="UTF-8" standalone="no"?>
<svg
   version="1.1"
   id="svg253"
   sodipodi:docname="CALCULADORA.svg"
   inkscape:version="1.2.2 (732a01da63, 2022-12-09)"
   inkscape:export-filename="assets\icone_calculadora.svg"
   inkscape:export-xdpi="96"
   inkscape:export-ydpi="96"
   width="80"
   height="80"
   xmlns:inkscape="http://www.inkscape.org/namespaces/inkscape"
   xmlns:sodipodi="http://sodipodi.sourceforge.net/DTD/sodipodi-0.dtd"
   xmlns="http://www.w3.org/2000/svg"
   xmlns:svg="http://www.w3.org/2000/svg">
  <sodipodi:namedview
     id="namedview255"
     pagecolor="#505050"
     bordercolor="#eeeeee"
     borderopacity="1"
     inkscape:showpageshadow="0"
     inkscape:pageopacity="0"
     inkscape:pagecheckerboard="0"
     inkscape:deskcolor="#505050"
     showgrid="false"
     inkscape:zoom="0.70710678"
     inkscape:cx="-478.00418"
     inkscape:cy="329.51176"
     inkscape:window-width="1920"
     inkscape:window-height="1009"
     inkscape:window-x="-8"
     inkscape:window-y="-8"
     inkscape:window-maximized="1"
     inkscape:current-layer="svg253">
    <inkscape:grid
       type="xygrid"
       id="grid4196"
       originx="0"
       originy="0" />
  </sodipodi:namedview>
  <defs
     id="defs133">
    <rect
       x="115.96551"
       y="254.55844"
       width="63.63961"
       height="67.882248"
       id="rect7076-9-4-8" />
  </defs>
  <g
     id="g8063"
     inkscape:export-filename="assets\zero.svg"
     inkscape:export-xdpi="96"
     inkscape:export-ydpi="96"
     transform="translate(-527.8943,-311)">
    <path
       stroke="none"
       fill="#383838"
       d="m 596.1443,322.7 q 11.75,11.75 11.75,28.3 0,16.55 -11.75,28.25 -11.7,11.75 -28.25,11.75 -16.65,0 -28.35,-11.75 -11.65,-11.7 -11.65,-28.25 0,-16.55 11.65,-28.3 11.7,-11.7 28.35,-11.7 16.55,0 28.25,11.7"
       id="path201-84-2" />
    <g
       aria-label="0"
       transform="translate(432.70787,62.261779)"
       id="text7074-6-2-9"
       style="font-size:45.3333px;line-height:1.25;letter-spacing:0px;word-spacing:0px;white-space:pre;shape-inside:url(#rect7076-9-4-8);shape-padding:7.07107;display:inline">
      <path
         d="m 132.0131,288.73822 q 0,3.264 0.136,5.25866 0.136,1.94934 0.45334,2.992 0.36266,1.04267 0.99733,1.40533 0.63466,0.31734 1.632,0.31734 1.088,0 1.67733,-0.31734 0.63467,-0.36266 0.952,-1.40533 0.31733,-1.04266 0.408,-3.03733 0.0907,-1.99467 0.0907,-5.25866 0,-3.264 -0.136,-5.21333 -0.136,-1.94933 -0.49867,-2.992 -0.31733,-1.04267 -0.952,-1.36 -0.63467,-0.36267 -1.632,-0.36267 -0.952,0 -1.58666,0.36267 -0.58934,0.31733 -0.952,1.36 -0.31734,1.04267 -0.45334,3.03733 -0.136,1.94933 -0.136,5.21333 z m -7.61599,0 q 0,-5.07733 0.77066,-8.20533 0.77067,-3.12799 2.176,-4.85066 1.40534,-1.72267 3.4,-2.312 1.99467,-0.63466 4.44266,-0.63466 2.448,0 4.44267,0.63466 1.99466,0.58933 3.4,2.312 1.40533,1.72267 2.17599,4.85066 0.77067,3.128 0.77067,8.20533 0,5.07733 -0.77067,8.20533 -0.77066,3.128 -2.17599,4.89599 -1.40534,1.72267 -3.4,2.312 -1.99467,0.58934 -4.44267,0.58934 -2.44799,0 -4.44266,-0.58934 -1.99466,-0.58933 -3.4,-2.312 -1.40533,-1.76799 -2.176,-4.89599 -0.77066,-3.128 -0.77066,-8.20533 z"
         style="font-weight:bold;font-family:'HP Simplified';-inkscape-font-specification:'HP Simplified Bold';fill:#ffffff"
         id="path11849" />
    </g>
  </g>
</svg>
